<svg width="2116" height="938" viewBox="0 0 2116 938" fill="none" xmlns="http://www.w3.org/2000/svg">
<g clip-path="url(#clip0_46_2229)">
<g opacity="0.7">
<path opacity="0.11" d="M877.359 885.2C877.903 884.846 878.058 884.119 877.705 883.574C877.351 883.03 876.624 882.875 876.079 883.228C875.535 883.582 875.38 884.309 875.733 884.854C876.087 885.398 876.814 885.553 877.359 885.2Z" fill="white"/>
<path d="M884.073 888.541C884.481 888.276 884.597 887.731 884.333 887.323C884.068 886.915 883.522 886.798 883.114 887.063C882.706 887.328 882.59 887.874 882.855 888.282C883.119 888.69 883.665 888.806 884.073 888.541Z" fill="white"/>
<path d="M893.62 867.647C894.028 867.382 894.144 866.837 893.88 866.429C893.615 866.021 893.069 865.904 892.661 866.169C892.253 866.434 892.137 866.98 892.401 867.388C892.666 867.796 893.212 867.912 893.62 867.647Z" fill="white"/>
<path d="M851.104 893.834C851.513 893.569 851.629 893.024 851.364 892.616C851.099 892.207 850.553 892.091 850.145 892.356C849.737 892.621 849.621 893.167 849.886 893.575C850.151 893.983 850.696 894.099 851.104 893.834Z" fill="white"/>
<path opacity="0.11" d="M834.39 921.484C834.934 921.131 835.089 920.403 834.736 919.859C834.383 919.314 833.655 919.159 833.111 919.513C832.566 919.866 832.411 920.594 832.765 921.138C833.118 921.682 833.846 921.837 834.39 921.484Z" fill="white"/>
<path d="M818.001 916.718C818.273 916.542 818.35 916.178 818.174 915.906C817.997 915.634 817.633 915.557 817.362 915.733C817.09 915.91 817.012 916.274 817.189 916.545C817.365 916.817 817.729 916.895 818.001 916.718Z" fill="white"/>
<path d="M888.342 905.372C888.614 905.195 888.692 904.832 888.515 904.56C888.339 904.288 887.975 904.211 887.703 904.387C887.431 904.563 887.354 904.927 887.531 905.199C887.707 905.471 888.07 905.548 888.342 905.372Z" fill="white"/>
<path d="M995.743 835.679C996.015 835.502 996.092 835.139 995.916 834.867C995.739 834.595 995.376 834.518 995.104 834.694C994.832 834.871 994.754 835.234 994.931 835.506C995.107 835.778 995.471 835.855 995.743 835.679Z" fill="white"/>
<path d="M1032.17 774.229C1032.44 774.052 1032.52 773.689 1032.35 773.417C1032.17 773.145 1031.81 773.068 1031.53 773.244C1031.26 773.421 1031.18 773.784 1031.36 774.056C1031.54 774.328 1031.9 774.405 1032.17 774.229Z" fill="white"/>
<path d="M1074.73 797.722C1075 797.546 1075.07 797.182 1074.9 796.91C1074.72 796.638 1074.36 796.561 1074.09 796.737C1073.81 796.914 1073.74 797.277 1073.91 797.549C1074.09 797.821 1074.45 797.898 1074.73 797.722Z" fill="white"/>
<path opacity="0.11" d="M817.717 926C817.989 925.823 818.067 925.46 817.89 925.188C817.714 924.916 817.35 924.839 817.078 925.015C816.806 925.192 816.729 925.555 816.905 925.827C817.082 926.099 817.445 926.176 817.717 926Z" fill="white"/>
<path opacity="0.11" d="M898.876 923.746C899.148 923.57 899.225 923.206 899.048 922.934C898.872 922.662 898.508 922.585 898.237 922.762C897.965 922.938 897.887 923.301 898.064 923.573C898.24 923.845 898.604 923.923 898.876 923.746Z" fill="white"/>
<path opacity="0.11" d="M990.257 857.438C990.528 857.262 990.606 856.898 990.429 856.626C990.253 856.354 989.889 856.277 989.617 856.453C989.345 856.63 989.268 856.993 989.445 857.265C989.621 857.537 989.985 857.615 990.257 857.438Z" fill="white"/>
<path d="M827.016 872.36C827.288 872.184 827.366 871.82 827.189 871.548C827.013 871.277 826.649 871.199 826.377 871.376C826.105 871.552 826.028 871.916 826.204 872.188C826.381 872.46 826.744 872.537 827.016 872.36Z" fill="white"/>
<path d="M902.243 822.144C902.515 821.967 902.592 821.604 902.416 821.332C902.239 821.06 901.876 820.982 901.604 821.159C901.332 821.335 901.254 821.699 901.431 821.971C901.607 822.243 901.971 822.32 902.243 822.144Z" fill="white"/>
<path opacity="0.3" d="M843.561 878.429C843.833 878.252 843.911 877.889 843.734 877.617C843.558 877.345 843.194 877.267 842.922 877.444C842.65 877.62 842.573 877.984 842.749 878.256C842.926 878.528 843.289 878.605 843.561 878.429Z" fill="white"/>
<path opacity="0.3" d="M1050.72 762.895C1050.99 762.719 1051.07 762.355 1050.89 762.083C1050.71 761.811 1050.35 761.734 1050.08 761.91C1049.81 762.087 1049.73 762.45 1049.91 762.722C1050.08 762.994 1050.45 763.071 1050.72 762.895Z" fill="white"/>
<path opacity="0.11" d="M958.296 794.166C958.567 793.989 958.645 793.626 958.468 793.354C958.292 793.082 957.928 793.005 957.656 793.181C957.385 793.357 957.307 793.721 957.484 793.993C957.66 794.265 958.024 794.342 958.296 794.166Z" fill="white"/>
<path opacity="0.11" d="M1051.16 792.707C1051.44 792.53 1051.51 792.167 1051.34 791.895C1051.16 791.623 1050.8 791.546 1050.53 791.722C1050.25 791.898 1050.18 792.262 1050.35 792.534C1050.53 792.806 1050.89 792.883 1051.16 792.707Z" fill="white"/>
<path opacity="0.3" d="M929.406 878.027C929.95 877.673 930.105 876.946 929.752 876.401C929.398 875.857 928.671 875.702 928.126 876.055C927.582 876.408 927.427 877.136 927.78 877.681C928.134 878.225 928.861 878.38 929.406 878.027Z" fill="white"/>
<path opacity="0.11" d="M948.882 844.385C949.426 844.032 949.581 843.304 949.228 842.76C948.875 842.216 948.147 842.061 947.603 842.414C947.058 842.767 946.904 843.495 947.257 844.039C947.61 844.584 948.338 844.738 948.882 844.385Z" fill="white"/>
<path d="M937.448 827.303C937.856 827.038 937.973 826.493 937.708 826.085C937.443 825.676 936.897 825.56 936.489 825.825C936.081 826.09 935.965 826.636 936.23 827.044C936.494 827.452 937.04 827.568 937.448 827.303Z" fill="white"/>
<path d="M937.026 901.088C937.434 900.823 937.551 900.278 937.286 899.87C937.021 899.462 936.475 899.345 936.067 899.61C935.659 899.875 935.543 900.421 935.808 900.829C936.073 901.237 936.618 901.353 937.026 901.088Z" fill="white"/>
<path d="M1106.97 804.802C1107.38 804.537 1107.5 803.991 1107.23 803.583C1106.97 803.175 1106.42 803.059 1106.01 803.324C1105.6 803.588 1105.49 804.134 1105.75 804.542C1106.02 804.95 1106.56 805.066 1106.97 804.802Z" fill="white"/>
<path d="M920.198 852.501C920.606 852.236 920.723 851.69 920.458 851.282C920.193 850.874 919.647 850.758 919.239 851.023C918.831 851.288 918.715 851.833 918.98 852.241C919.244 852.65 919.79 852.766 920.198 852.501Z" fill="white"/>
<path d="M996.028 885.203C996.436 884.938 996.553 884.393 996.288 883.985C996.023 883.576 995.477 883.46 995.069 883.725C994.661 883.99 994.545 884.536 994.81 884.944C995.075 885.352 995.62 885.468 996.028 885.203Z" fill="white"/>
<path d="M1104.83 766.984C1105.24 766.719 1105.36 766.173 1105.09 765.765C1104.83 765.357 1104.28 765.241 1103.87 765.506C1103.46 765.771 1103.35 766.316 1103.61 766.724C1103.88 767.133 1104.42 767.249 1104.83 766.984Z" fill="white"/>
<path d="M1099.07 732.216C1099.48 731.951 1099.6 731.406 1099.33 730.998C1099.07 730.589 1098.52 730.473 1098.11 730.738C1097.71 731.003 1097.59 731.549 1097.85 731.957C1098.12 732.365 1098.67 732.481 1099.07 732.216Z" fill="white"/>
<path opacity="0.3" d="M978.413 801.42C978.958 801.066 979.113 800.339 978.759 799.794C978.406 799.25 977.678 799.095 977.134 799.448C976.59 799.802 976.435 800.529 976.788 801.074C977.141 801.618 977.869 801.773 978.413 801.42Z" fill="white"/>
<path d="M955.71 766.444C956.255 766.091 956.409 765.363 956.056 764.819C955.703 764.274 954.975 764.12 954.431 764.473C953.887 764.826 953.732 765.554 954.085 766.098C954.438 766.642 955.166 766.797 955.71 766.444Z" fill="white"/>
<path d="M1010.82 795.793C1011.22 795.528 1011.34 794.983 1011.07 794.575C1010.81 794.167 1010.26 794.05 1009.86 794.315C1009.45 794.58 1009.33 795.126 1009.6 795.534C1009.86 795.942 1010.41 796.058 1010.82 795.793Z" fill="white"/>
<path opacity="0.3" d="M1022.24 761.075C1022.79 760.722 1022.94 759.994 1022.59 759.45C1022.23 758.906 1021.51 758.751 1020.96 759.104C1020.42 759.457 1020.26 760.185 1020.62 760.729C1020.97 761.274 1021.7 761.429 1022.24 761.075Z" fill="white"/>
<path opacity="0.3" d="M1093.71 764.402C1094.25 764.049 1094.41 763.321 1094.06 762.777C1093.7 762.233 1092.98 762.078 1092.43 762.431C1091.89 762.784 1091.73 763.512 1092.08 764.056C1092.44 764.601 1093.17 764.755 1093.71 764.402Z" fill="white"/>
<path opacity="0.3" d="M1036.71 802.791C1037.25 802.438 1037.41 801.71 1037.06 801.166C1036.7 800.621 1035.98 800.466 1035.43 800.82C1034.89 801.173 1034.73 801.901 1035.08 802.445C1035.44 802.989 1036.17 803.144 1036.71 802.791Z" fill="white"/>
<path opacity="0.11" d="M1063.92 762.731C1064.47 762.378 1064.62 761.65 1064.27 761.106C1063.91 760.561 1063.19 760.406 1062.64 760.76C1062.1 761.113 1061.94 761.841 1062.3 762.385C1062.65 762.929 1063.38 763.084 1063.92 762.731Z" fill="white"/>
<path opacity="0.3" d="M761.46 931.007C762.005 930.654 762.159 929.926 761.806 929.382C761.453 928.838 760.725 928.683 760.181 929.036C759.637 929.389 759.482 930.117 759.835 930.661C760.188 931.206 760.916 931.361 761.46 931.007Z" fill="white"/>
<path opacity="0.11" d="M741.765 929.787C742.309 929.433 742.464 928.706 742.111 928.161C741.758 927.617 741.03 927.462 740.486 927.815C739.941 928.169 739.786 928.896 740.14 929.441C740.493 929.985 741.221 930.14 741.765 929.787Z" fill="white"/>
<path opacity="0.11" d="M950.093 624.201C950.637 623.848 950.792 623.12 950.439 622.576C950.086 622.032 949.358 621.877 948.814 622.23C948.269 622.583 948.115 623.311 948.468 623.855C948.821 624.4 949.549 624.555 950.093 624.201Z" fill="white"/>
<path d="M956.81 627.544C957.218 627.279 957.334 626.733 957.069 626.325C956.804 625.917 956.259 625.801 955.85 626.066C955.442 626.331 955.326 626.876 955.591 627.284C955.856 627.693 956.401 627.809 956.81 627.544Z" fill="white"/>
<path d="M966.354 606.649C966.763 606.384 966.879 605.839 966.614 605.43C966.349 605.022 965.803 604.906 965.395 605.171C964.987 605.436 964.871 605.981 965.136 606.39C965.401 606.798 965.946 606.914 966.354 606.649Z" fill="white"/>
<path d="M923.839 632.836C924.247 632.571 924.363 632.026 924.098 631.618C923.833 631.21 923.288 631.093 922.88 631.358C922.472 631.623 922.355 632.169 922.62 632.577C922.885 632.985 923.431 633.101 923.839 632.836Z" fill="white"/>
<path opacity="0.11" d="M907.124 660.485C907.669 660.132 907.824 659.404 907.47 658.86C907.117 658.316 906.389 658.161 905.845 658.514C905.301 658.867 905.146 659.595 905.499 660.139C905.852 660.684 906.58 660.838 907.124 660.485Z" fill="white"/>
<path d="M890.733 655.721C891.005 655.545 891.082 655.181 890.906 654.909C890.729 654.638 890.366 654.56 890.094 654.737C889.822 654.913 889.745 655.277 889.921 655.549C890.098 655.821 890.461 655.898 890.733 655.721Z" fill="white"/>
<path d="M961.079 644.374C961.351 644.198 961.428 643.834 961.252 643.563C961.075 643.291 960.712 643.213 960.44 643.39C960.168 643.566 960.09 643.93 960.267 644.202C960.443 644.474 960.807 644.551 961.079 644.374Z" fill="white"/>
<path d="M1068.48 574.682C1068.75 574.506 1068.83 574.142 1068.65 573.87C1068.47 573.598 1068.11 573.521 1067.84 573.697C1067.57 573.874 1067.49 574.237 1067.67 574.509C1067.84 574.781 1068.21 574.859 1068.48 574.682Z" fill="white"/>
<path d="M1104.9 513.232C1105.18 513.055 1105.25 512.692 1105.08 512.42C1104.9 512.148 1104.54 512.07 1104.27 512.247C1103.99 512.423 1103.92 512.787 1104.09 513.059C1104.27 513.331 1104.63 513.408 1104.9 513.232Z" fill="white"/>
<path d="M1147.46 536.727C1147.73 536.55 1147.81 536.187 1147.63 535.915C1147.46 535.643 1147.09 535.565 1146.82 535.742C1146.55 535.918 1146.47 536.282 1146.65 536.554C1146.82 536.826 1147.19 536.903 1147.46 536.727Z" fill="white"/>
<path d="M789.04 738.518C789.312 738.341 789.389 737.978 789.213 737.706C789.036 737.434 788.673 737.356 788.401 737.533C788.129 737.709 788.051 738.073 788.228 738.345C788.404 738.617 788.768 738.694 789.04 738.518Z" fill="white"/>
<path opacity="0.11" d="M764.389 716.709C764.661 716.533 764.739 716.169 764.562 715.897C764.386 715.625 764.022 715.548 763.75 715.725C763.478 715.901 763.401 716.265 763.577 716.537C763.754 716.808 764.117 716.886 764.389 716.709Z" fill="white"/>
<path opacity="0.11" d="M750.561 741.787C750.833 741.61 750.911 741.247 750.734 740.975C750.558 740.703 750.194 740.625 749.922 740.802C749.65 740.978 749.573 741.342 749.749 741.614C749.926 741.886 750.289 741.963 750.561 741.787Z" fill="white"/>
<path opacity="0.11" d="M785.999 760.796C786.271 760.619 786.348 760.256 786.172 759.984C785.995 759.712 785.632 759.634 785.36 759.811C785.088 759.987 785.01 760.351 785.187 760.623C785.363 760.895 785.727 760.972 785.999 760.796Z" fill="white"/>
<path opacity="0.11" d="M890.452 665.002C890.724 664.825 890.801 664.462 890.625 664.19C890.448 663.918 890.085 663.84 889.813 664.017C889.541 664.193 889.463 664.557 889.64 664.829C889.816 665.101 890.18 665.178 890.452 665.002Z" fill="white"/>
<path opacity="0.11" d="M971.61 662.749C971.882 662.572 971.959 662.209 971.783 661.937C971.606 661.665 971.243 661.587 970.971 661.764C970.699 661.94 970.622 662.304 970.798 662.576C970.975 662.848 971.338 662.925 971.61 662.749Z" fill="white"/>
<path opacity="0.11" d="M1062.99 596.44C1063.26 596.263 1063.34 595.9 1063.16 595.628C1062.99 595.356 1062.62 595.279 1062.35 595.455C1062.08 595.632 1062 595.995 1062.18 596.267C1062.36 596.539 1062.72 596.616 1062.99 596.44Z" fill="white"/>
<path opacity="0.3" d="M803.71 711.495C803.982 711.318 804.059 710.955 803.882 710.683C803.706 710.411 803.342 710.333 803.071 710.51C802.799 710.686 802.721 711.05 802.898 711.322C803.074 711.594 803.438 711.671 803.71 711.495Z" fill="white"/>
<path d="M899.751 611.362C900.023 611.186 900.1 610.822 899.923 610.55C899.747 610.278 899.383 610.201 899.112 610.377C898.84 610.554 898.762 610.917 898.939 611.189C899.115 611.461 899.479 611.539 899.751 611.362Z" fill="white"/>
<path d="M974.975 561.145C975.247 560.968 975.325 560.605 975.148 560.333C974.972 560.061 974.608 559.983 974.336 560.16C974.064 560.336 973.987 560.7 974.163 560.972C974.34 561.244 974.703 561.321 974.975 561.145Z" fill="white"/>
<path d="M895.665 678.425C895.937 678.248 896.014 677.885 895.838 677.613C895.661 677.341 895.298 677.263 895.026 677.44C894.754 677.616 894.676 677.98 894.853 678.252C895.029 678.524 895.393 678.601 895.665 678.425Z" fill="white"/>
<path opacity="0.3" d="M861.178 700.804C861.45 700.627 861.528 700.264 861.351 699.992C861.175 699.72 860.811 699.643 860.539 699.819C860.267 699.996 860.19 700.359 860.366 700.631C860.543 700.903 860.906 700.98 861.178 700.804Z" fill="white"/>
<path opacity="0.11" d="M800.967 696.474C801.239 696.298 801.317 695.934 801.14 695.662C800.964 695.39 800.6 695.313 800.328 695.489C800.056 695.666 799.979 696.029 800.155 696.301C800.332 696.573 800.695 696.651 800.967 696.474Z" fill="white"/>
<path opacity="0.3" d="M916.296 617.43C916.568 617.253 916.645 616.89 916.468 616.618C916.292 616.346 915.928 616.269 915.656 616.445C915.385 616.622 915.307 616.985 915.484 617.257C915.66 617.529 916.024 617.606 916.296 617.43Z" fill="white"/>
<path opacity="0.3" d="M910.118 682.349C910.39 682.173 910.467 681.809 910.291 681.538C910.114 681.266 909.751 681.188 909.479 681.365C909.207 681.541 909.129 681.905 909.306 682.177C909.482 682.449 909.846 682.526 910.118 682.349Z" fill="white"/>
<path opacity="0.3" d="M853.702 725.959C853.974 725.782 854.051 725.419 853.875 725.147C853.698 724.875 853.335 724.798 853.063 724.974C852.791 725.151 852.713 725.514 852.89 725.786C853.066 726.058 853.43 726.135 853.702 725.959Z" fill="white"/>
<path opacity="0.3" d="M818.001 702.226C818.273 702.049 818.35 701.686 818.173 701.414C817.997 701.142 817.633 701.064 817.362 701.241C817.09 701.417 817.012 701.781 817.189 702.053C817.365 702.325 817.729 702.402 818.001 702.226Z" fill="white"/>
<path opacity="0.3" d="M1123.45 501.897C1123.72 501.72 1123.8 501.357 1123.62 501.085C1123.45 500.813 1123.08 500.735 1122.81 500.912C1122.54 501.088 1122.46 501.452 1122.64 501.724C1122.82 501.996 1123.18 502.073 1123.45 501.897Z" fill="white"/>
<path opacity="0.11" d="M1031.03 533.169C1031.3 532.993 1031.38 532.629 1031.2 532.357C1031.03 532.085 1030.66 532.008 1030.39 532.185C1030.12 532.361 1030.04 532.725 1030.22 532.996C1030.39 533.268 1030.76 533.346 1031.03 533.169Z" fill="white"/>
<path opacity="0.11" d="M1123.9 531.71C1124.17 531.533 1124.25 531.17 1124.07 530.898C1123.9 530.626 1123.53 530.549 1123.26 530.725C1122.99 530.902 1122.91 531.265 1123.09 531.537C1123.26 531.809 1123.63 531.886 1123.9 531.71Z" fill="white"/>
<path opacity="0.3" d="M1002.14 617.029C1002.68 616.676 1002.84 615.948 1002.49 615.404C1002.13 614.859 1001.4 614.705 1000.86 615.058C1000.32 615.411 1000.16 616.139 1000.51 616.683C1000.87 617.227 1001.6 617.382 1002.14 617.029Z" fill="white"/>
<path opacity="0.11" d="M1021.62 583.387C1022.16 583.034 1022.32 582.307 1021.96 581.762C1021.61 581.218 1020.88 581.063 1020.34 581.416C1019.79 581.769 1019.64 582.497 1019.99 583.041C1020.34 583.586 1021.07 583.741 1021.62 583.387Z" fill="white"/>
<path d="M1010.18 566.305C1010.59 566.04 1010.71 565.494 1010.44 565.086C1010.18 564.678 1009.63 564.562 1009.22 564.827C1008.82 565.092 1008.7 565.637 1008.96 566.045C1009.23 566.454 1009.77 566.57 1010.18 566.305Z" fill="white"/>
<path d="M1009.76 640.09C1010.17 639.825 1010.28 639.279 1010.02 638.871C1009.76 638.463 1009.21 638.347 1008.8 638.612C1008.39 638.876 1008.28 639.422 1008.54 639.83C1008.81 640.238 1009.35 640.354 1009.76 640.09Z" fill="white"/>
<path d="M1179.71 543.804C1180.11 543.539 1180.23 542.993 1179.97 542.585C1179.7 542.177 1179.16 542.061 1178.75 542.326C1178.34 542.591 1178.22 543.136 1178.49 543.544C1178.75 543.953 1179.3 544.069 1179.71 543.804Z" fill="white"/>
<path d="M854.55 742.911C854.958 742.646 855.074 742.101 854.809 741.693C854.544 741.285 853.999 741.168 853.591 741.433C853.182 741.698 853.066 742.244 853.331 742.652C853.596 743.06 854.142 743.176 854.55 742.911Z" fill="white"/>
<path d="M781.683 774.099C782.091 773.834 782.207 773.289 781.942 772.881C781.677 772.472 781.132 772.356 780.723 772.621C780.315 772.886 780.199 773.432 780.464 773.84C780.729 774.248 781.274 774.364 781.683 774.099Z" fill="white"/>
<path d="M760.519 759.829C760.927 759.564 761.043 759.019 760.778 758.61C760.513 758.202 759.967 758.086 759.559 758.351C759.151 758.616 759.035 759.161 759.3 759.57C759.565 759.978 760.11 760.094 760.519 759.829Z" fill="white"/>
<path d="M992.933 591.503C993.341 591.238 993.457 590.693 993.192 590.285C992.927 589.877 992.382 589.76 991.973 590.025C991.565 590.29 991.449 590.836 991.714 591.244C991.979 591.652 992.524 591.768 992.933 591.503Z" fill="white"/>
<path d="M930.87 683.584C931.278 683.319 931.394 682.773 931.13 682.365C930.865 681.957 930.319 681.841 929.911 682.105C929.503 682.37 929.387 682.916 929.651 683.324C929.916 683.732 930.462 683.848 930.87 683.584Z" fill="white"/>
<path d="M1068.76 624.204C1069.17 623.939 1069.29 623.394 1069.02 622.986C1068.76 622.578 1068.21 622.461 1067.8 622.726C1067.39 622.991 1067.28 623.537 1067.54 623.945C1067.81 624.353 1068.35 624.469 1068.76 624.204Z" fill="white"/>
<path d="M1177.57 505.985C1177.97 505.721 1178.09 505.175 1177.82 504.767C1177.56 504.359 1177.01 504.243 1176.61 504.507C1176.2 504.772 1176.08 505.318 1176.35 505.726C1176.61 506.134 1177.16 506.25 1177.57 505.985Z" fill="white"/>
<path d="M1171.81 471.22C1172.22 470.955 1172.33 470.409 1172.07 470.001C1171.8 469.593 1171.26 469.477 1170.85 469.742C1170.44 470.007 1170.32 470.552 1170.59 470.96C1170.85 471.369 1171.4 471.485 1171.81 471.22Z" fill="white"/>
<path opacity="0.3" d="M1051.15 540.421C1051.69 540.068 1051.85 539.34 1051.49 538.796C1051.14 538.251 1050.41 538.096 1049.87 538.45C1049.32 538.803 1049.17 539.531 1049.52 540.075C1049.88 540.619 1050.6 540.774 1051.15 540.421Z" fill="white"/>
<path d="M1028.44 505.446C1028.99 505.093 1029.14 504.365 1028.79 503.821C1028.44 503.277 1027.71 503.122 1027.17 503.475C1026.62 503.828 1026.47 504.556 1026.82 505.1C1027.17 505.645 1027.9 505.8 1028.44 505.446Z" fill="white"/>
<path d="M1083.55 534.796C1083.96 534.531 1084.07 533.985 1083.81 533.577C1083.54 533.169 1083 533.053 1082.59 533.318C1082.18 533.582 1082.07 534.128 1082.33 534.536C1082.6 534.944 1083.14 535.06 1083.55 534.796Z" fill="white"/>
<path opacity="0.3" d="M1094.98 500.077C1095.52 499.724 1095.68 498.996 1095.32 498.452C1094.97 497.908 1094.24 497.753 1093.7 498.106C1093.15 498.459 1093 499.187 1093.35 499.731C1093.7 500.275 1094.43 500.43 1094.98 500.077Z" fill="white"/>
<path opacity="0.3" d="M1166.44 503.405C1166.99 503.051 1167.14 502.324 1166.79 501.779C1166.44 501.235 1165.71 501.08 1165.17 501.433C1164.62 501.787 1164.47 502.514 1164.82 503.059C1165.17 503.603 1165.9 503.758 1166.44 503.405Z" fill="white"/>
<path opacity="0.3" d="M1109.44 541.793C1109.99 541.44 1110.14 540.712 1109.79 540.168C1109.44 539.624 1108.71 539.469 1108.17 539.822C1107.62 540.175 1107.47 540.903 1107.82 541.447C1108.17 541.992 1108.9 542.147 1109.44 541.793Z" fill="white"/>
<path opacity="0.3" d="M832.109 733.672C832.653 733.319 832.808 732.592 832.455 732.047C832.101 731.503 831.374 731.348 830.829 731.701C830.285 732.054 830.13 732.782 830.483 733.326C830.837 733.871 831.564 734.026 832.109 733.672Z" fill="white"/>
<path opacity="0.3" d="M774.616 732.476C775.161 732.122 775.316 731.395 774.962 730.85C774.609 730.306 773.882 730.151 773.337 730.504C772.793 730.858 772.638 731.585 772.991 732.13C773.344 732.674 774.072 732.829 774.616 732.476Z" fill="white"/>
<path opacity="0.11" d="M1136.66 501.733C1137.2 501.38 1137.35 500.652 1137 500.108C1136.65 499.564 1135.92 499.409 1135.38 499.762C1134.83 500.115 1134.68 500.843 1135.03 501.387C1135.38 501.932 1136.11 502.086 1136.66 501.733Z" fill="white"/>
<path opacity="0.3" d="M834.195 670.011C834.739 669.657 834.894 668.93 834.541 668.385C834.187 667.841 833.46 667.686 832.915 668.039C832.371 668.393 832.216 669.12 832.569 669.665C832.923 670.209 833.65 670.364 834.195 670.011Z" fill="white"/>
<path opacity="0.11" d="M814.499 668.788C815.044 668.435 815.199 667.707 814.845 667.163C814.492 666.618 813.764 666.463 813.22 666.817C812.676 667.17 812.521 667.898 812.874 668.442C813.227 668.986 813.955 669.141 814.499 668.788Z" fill="white"/>
<path opacity="0.3" d="M831.023 702.874C831.567 702.521 831.722 701.793 831.369 701.249C831.015 700.704 830.288 700.549 829.743 700.903C829.199 701.256 829.044 701.984 829.397 702.528C829.751 703.072 830.478 703.227 831.023 702.874Z" fill="white"/>
<path d="M861.487 682.401C861.895 682.136 862.012 681.591 861.747 681.182C861.482 680.774 860.936 680.658 860.528 680.923C860.12 681.188 860.004 681.734 860.269 682.142C860.534 682.55 861.079 682.666 861.487 682.401Z" fill="white"/>
<path opacity="0.11" d="M1259.23 533.282C1259.77 532.929 1259.93 532.201 1259.57 531.657C1259.22 531.113 1258.49 530.958 1257.95 531.311C1257.4 531.664 1257.25 532.392 1257.6 532.936C1257.95 533.48 1258.68 533.635 1259.23 533.282Z" fill="white"/>
<path d="M1265.94 536.624C1266.35 536.359 1266.46 535.813 1266.2 535.405C1265.93 534.997 1265.39 534.881 1264.98 535.146C1264.57 535.411 1264.46 535.956 1264.72 536.364C1264.99 536.772 1265.53 536.889 1265.94 536.624Z" fill="white"/>
<path d="M1275.49 515.73C1275.9 515.465 1276.01 514.919 1275.75 514.511C1275.48 514.103 1274.94 513.987 1274.53 514.252C1274.12 514.517 1274.01 515.062 1274.27 515.47C1274.54 515.878 1275.08 515.995 1275.49 515.73Z" fill="white"/>
<path d="M1232.97 541.916C1233.38 541.651 1233.5 541.106 1233.23 540.698C1232.97 540.289 1232.42 540.173 1232.01 540.438C1231.6 540.703 1231.49 541.249 1231.75 541.657C1232.02 542.065 1232.56 542.181 1232.97 541.916Z" fill="white"/>
<path opacity="0.11" d="M1216.26 569.565C1216.8 569.212 1216.96 568.484 1216.6 567.94C1216.25 567.396 1215.52 567.241 1214.98 567.594C1214.43 567.947 1214.28 568.675 1214.63 569.219C1214.99 569.764 1215.71 569.918 1216.26 569.565Z" fill="white"/>
<path d="M1199.87 564.801C1200.14 564.625 1200.22 564.261 1200.04 563.989C1199.86 563.717 1199.5 563.64 1199.23 563.817C1198.95 563.993 1198.88 564.356 1199.05 564.628C1199.23 564.9 1199.59 564.978 1199.87 564.801Z" fill="white"/>
<path d="M1270.21 553.455C1270.48 553.278 1270.56 552.915 1270.38 552.643C1270.21 552.371 1269.84 552.294 1269.57 552.47C1269.3 552.646 1269.22 553.01 1269.4 553.282C1269.57 553.554 1269.94 553.631 1270.21 553.455Z" fill="white"/>
<path d="M1377.61 483.762C1377.88 483.585 1377.96 483.222 1377.78 482.95C1377.6 482.678 1377.24 482.601 1376.97 482.777C1376.7 482.954 1376.62 483.317 1376.8 483.589C1376.97 483.861 1377.34 483.938 1377.61 483.762Z" fill="white"/>
<path d="M1414.04 422.312C1414.31 422.135 1414.39 421.771 1414.21 421.5C1414.04 421.228 1413.67 421.15 1413.4 421.327C1413.13 421.503 1413.05 421.867 1413.23 422.139C1413.4 422.411 1413.77 422.488 1414.04 422.312Z" fill="white"/>
<path d="M1456.59 445.805C1456.86 445.629 1456.94 445.265 1456.77 444.993C1456.59 444.721 1456.23 444.644 1455.95 444.82C1455.68 444.997 1455.6 445.36 1455.78 445.632C1455.96 445.904 1456.32 445.981 1456.59 445.805Z" fill="white"/>
<path d="M1098.17 647.598C1098.44 647.421 1098.52 647.058 1098.34 646.786C1098.17 646.514 1097.8 646.436 1097.53 646.613C1097.26 646.789 1097.18 647.153 1097.36 647.425C1097.54 647.697 1097.9 647.774 1098.17 647.598Z" fill="white"/>
<path opacity="0.11" d="M1073.52 625.79C1073.8 625.614 1073.87 625.25 1073.7 624.978C1073.52 624.706 1073.16 624.629 1072.88 624.805C1072.61 624.982 1072.54 625.345 1072.71 625.617C1072.89 625.889 1073.25 625.967 1073.52 625.79Z" fill="white"/>
<path opacity="0.11" d="M1059.7 650.867C1059.97 650.691 1060.05 650.327 1059.87 650.055C1059.69 649.784 1059.33 649.706 1059.06 649.883C1058.78 650.059 1058.71 650.423 1058.88 650.695C1059.06 650.966 1059.42 651.044 1059.7 650.867Z" fill="white"/>
<path opacity="0.11" d="M1095.13 669.876C1095.4 669.699 1095.48 669.336 1095.3 669.064C1095.13 668.792 1094.76 668.715 1094.49 668.891C1094.22 669.068 1094.14 669.431 1094.32 669.703C1094.5 669.975 1094.86 670.052 1095.13 669.876Z" fill="white"/>
<path opacity="0.11" d="M1199.58 574.082C1199.86 573.906 1199.93 573.542 1199.76 573.27C1199.58 572.998 1199.22 572.921 1198.95 573.097C1198.67 573.274 1198.6 573.637 1198.77 573.909C1198.95 574.181 1199.31 574.259 1199.58 574.082Z" fill="white"/>
<path opacity="0.11" d="M1280.73 571.829C1281 571.652 1281.08 571.289 1280.91 571.017C1280.73 570.745 1280.37 570.667 1280.09 570.844C1279.82 571.02 1279.74 571.384 1279.92 571.656C1280.1 571.928 1280.46 572.005 1280.73 571.829Z" fill="white"/>
<path opacity="0.11" d="M1372.13 505.521C1372.4 505.344 1372.47 504.981 1372.3 504.709C1372.12 504.437 1371.76 504.359 1371.49 504.536C1371.21 504.712 1371.14 505.076 1371.31 505.348C1371.49 505.62 1371.85 505.697 1372.13 505.521Z" fill="white"/>
<path opacity="0.3" d="M1112.84 620.575C1113.11 620.398 1113.19 620.035 1113.02 619.763C1112.84 619.491 1112.48 619.413 1112.2 619.59C1111.93 619.766 1111.85 620.13 1112.03 620.402C1112.21 620.674 1112.57 620.751 1112.84 620.575Z" fill="white"/>
<path d="M1208.88 520.443C1209.15 520.267 1209.23 519.903 1209.05 519.631C1208.88 519.36 1208.51 519.282 1208.24 519.459C1207.97 519.635 1207.89 519.999 1208.07 520.271C1208.25 520.543 1208.61 520.62 1208.88 520.443Z" fill="white"/>
<path d="M1284.11 470.226C1284.38 470.049 1284.46 469.686 1284.28 469.414C1284.11 469.142 1283.74 469.064 1283.47 469.241C1283.2 469.417 1283.12 469.781 1283.3 470.053C1283.47 470.325 1283.84 470.402 1284.11 470.226Z" fill="white"/>
<path d="M1204.8 587.506C1205.07 587.33 1205.14 586.966 1204.97 586.694C1204.79 586.422 1204.43 586.345 1204.16 586.521C1203.88 586.698 1203.81 587.061 1203.98 587.333C1204.16 587.605 1204.52 587.682 1204.8 587.506Z" fill="white"/>
<path opacity="0.3" d="M1170.31 609.885C1170.59 609.708 1170.66 609.345 1170.49 609.073C1170.31 608.801 1169.95 608.723 1169.67 608.9C1169.4 609.076 1169.32 609.44 1169.5 609.712C1169.68 609.984 1170.04 610.061 1170.31 609.885Z" fill="white"/>
<path opacity="0.11" d="M1110.1 605.554C1110.37 605.378 1110.45 605.014 1110.28 604.742C1110.1 604.47 1109.74 604.393 1109.46 604.569C1109.19 604.746 1109.11 605.109 1109.29 605.381C1109.47 605.653 1109.83 605.731 1110.1 605.554Z" fill="white"/>
<path opacity="0.3" d="M1225.43 526.511C1225.7 526.334 1225.78 525.971 1225.6 525.699C1225.42 525.427 1225.06 525.349 1224.79 525.526C1224.52 525.702 1224.44 526.066 1224.62 526.338C1224.79 526.61 1225.16 526.687 1225.43 526.511Z" fill="white"/>
<path opacity="0.3" d="M1219.25 591.43C1219.52 591.254 1219.6 590.89 1219.42 590.618C1219.25 590.346 1218.88 590.269 1218.61 590.445C1218.34 590.622 1218.26 590.985 1218.44 591.257C1218.62 591.529 1218.98 591.607 1219.25 591.43Z" fill="white"/>
<path opacity="0.3" d="M1162.83 635.039C1163.11 634.863 1163.18 634.499 1163.01 634.227C1162.83 633.955 1162.47 633.878 1162.2 634.054C1161.92 634.231 1161.85 634.594 1162.02 634.866C1162.2 635.138 1162.56 635.216 1162.83 635.039Z" fill="white"/>
<path opacity="0.3" d="M1127.13 611.306C1127.4 611.129 1127.48 610.766 1127.3 610.494C1127.13 610.222 1126.76 610.145 1126.49 610.321C1126.22 610.498 1126.14 610.861 1126.32 611.133C1126.5 611.405 1126.86 611.482 1127.13 611.306Z" fill="white"/>
<path opacity="0.3" d="M1432.58 410.978C1432.86 410.802 1432.93 410.438 1432.76 410.166C1432.58 409.894 1432.22 409.817 1431.95 409.993C1431.67 410.17 1431.6 410.533 1431.77 410.805C1431.95 411.077 1432.31 411.155 1432.58 410.978Z" fill="white"/>
<path opacity="0.11" d="M1340.16 442.249C1340.44 442.073 1340.51 441.709 1340.34 441.437C1340.16 441.165 1339.8 441.088 1339.53 441.264C1339.25 441.441 1339.18 441.804 1339.35 442.076C1339.53 442.348 1339.89 442.426 1340.16 442.249Z" fill="white"/>
<path opacity="0.11" d="M1433.03 440.79C1433.3 440.613 1433.38 440.25 1433.2 439.978C1433.03 439.706 1432.66 439.628 1432.39 439.805C1432.12 439.981 1432.04 440.345 1432.22 440.617C1432.39 440.889 1432.76 440.966 1433.03 440.79Z" fill="white"/>
<path opacity="0.3" d="M1311.27 526.11C1311.82 525.756 1311.97 525.029 1311.62 524.484C1311.27 523.94 1310.54 523.785 1309.99 524.138C1309.45 524.491 1309.29 525.219 1309.65 525.764C1310 526.308 1310.73 526.463 1311.27 526.11Z" fill="white"/>
<path opacity="0.11" d="M1330.75 492.468C1331.29 492.115 1331.45 491.387 1331.1 490.843C1330.74 490.299 1330.01 490.144 1329.47 490.497C1328.93 490.85 1328.77 491.578 1329.12 492.122C1329.48 492.667 1330.2 492.821 1330.75 492.468Z" fill="white"/>
<path d="M1319.32 475.386C1319.72 475.121 1319.84 474.575 1319.57 474.167C1319.31 473.759 1318.76 473.643 1318.36 473.908C1317.95 474.172 1317.83 474.718 1318.1 475.126C1318.36 475.534 1318.91 475.651 1319.32 475.386Z" fill="white"/>
<path d="M1318.89 549.17C1319.3 548.905 1319.42 548.36 1319.15 547.952C1318.89 547.544 1318.34 547.427 1317.93 547.692C1317.53 547.957 1317.41 548.503 1317.67 548.911C1317.94 549.319 1318.49 549.435 1318.89 549.17Z" fill="white"/>
<path d="M1488.84 452.885C1489.25 452.62 1489.36 452.074 1489.1 451.666C1488.83 451.258 1488.29 451.142 1487.88 451.407C1487.47 451.671 1487.36 452.217 1487.62 452.625C1487.89 453.033 1488.43 453.149 1488.84 452.885Z" fill="white"/>
<path d="M1163.68 651.992C1164.09 651.727 1164.21 651.182 1163.94 650.773C1163.68 650.365 1163.13 650.249 1162.72 650.514C1162.32 650.779 1162.2 651.324 1162.46 651.733C1162.73 652.141 1163.27 652.257 1163.68 651.992Z" fill="white"/>
<path d="M1090.82 683.18C1091.22 682.915 1091.34 682.369 1091.07 681.961C1090.81 681.553 1090.26 681.437 1089.86 681.702C1089.45 681.967 1089.33 682.512 1089.6 682.92C1089.86 683.329 1090.41 683.445 1090.82 683.18Z" fill="white"/>
<path d="M1069.65 668.91C1070.06 668.645 1070.18 668.099 1069.91 667.691C1069.65 667.283 1069.1 667.167 1068.69 667.432C1068.28 667.697 1068.17 668.242 1068.43 668.65C1068.7 669.059 1069.24 669.175 1069.65 668.91Z" fill="white"/>
<path d="M1302.07 500.583C1302.47 500.318 1302.59 499.773 1302.32 499.365C1302.06 498.957 1301.51 498.84 1301.11 499.105C1300.7 499.37 1300.58 499.916 1300.85 500.324C1301.11 500.732 1301.66 500.848 1302.07 500.583Z" fill="white"/>
<path d="M1240 592.664C1240.41 592.399 1240.53 591.854 1240.26 591.446C1240 591.038 1239.45 590.921 1239.04 591.186C1238.64 591.451 1238.52 591.997 1238.78 592.405C1239.05 592.813 1239.59 592.929 1240 592.664Z" fill="white"/>
<path d="M1377.89 533.285C1378.3 533.02 1378.42 532.475 1378.15 532.067C1377.89 531.658 1377.34 531.542 1376.93 531.807C1376.53 532.072 1376.41 532.618 1376.67 533.026C1376.94 533.434 1377.49 533.55 1377.89 533.285Z" fill="white"/>
<path d="M1486.7 415.066C1487.11 414.801 1487.22 414.256 1486.96 413.848C1486.69 413.439 1486.15 413.323 1485.74 413.588C1485.33 413.853 1485.21 414.399 1485.48 414.807C1485.74 415.215 1486.29 415.331 1486.7 415.066Z" fill="white"/>
<path d="M1480.94 380.3C1481.35 380.035 1481.46 379.489 1481.2 379.081C1480.93 378.673 1480.39 378.557 1479.98 378.822C1479.57 379.087 1479.46 379.632 1479.72 380.04C1479.99 380.448 1480.53 380.565 1480.94 380.3Z" fill="white"/>
<path opacity="0.3" d="M1360.27 449.502C1360.82 449.149 1360.97 448.421 1360.62 447.877C1360.27 447.332 1359.54 447.177 1358.99 447.531C1358.45 447.884 1358.29 448.612 1358.65 449.156C1359 449.7 1359.73 449.855 1360.27 449.502Z" fill="white"/>
<path d="M1337.58 414.527C1338.12 414.174 1338.28 413.446 1337.92 412.902C1337.57 412.357 1336.84 412.203 1336.3 412.556C1335.75 412.909 1335.6 413.637 1335.95 414.181C1336.31 414.725 1337.03 414.88 1337.58 414.527Z" fill="white"/>
<path d="M1392.68 443.876C1393.09 443.611 1393.21 443.066 1392.94 442.658C1392.68 442.25 1392.13 442.133 1391.72 442.398C1391.32 442.663 1391.2 443.209 1391.46 443.617C1391.73 444.025 1392.27 444.141 1392.68 443.876Z" fill="white"/>
<path opacity="0.3" d="M1404.11 409.158C1404.65 408.805 1404.81 408.078 1404.45 407.533C1404.1 406.989 1403.37 406.834 1402.83 407.187C1402.29 407.54 1402.13 408.268 1402.48 408.812C1402.84 409.357 1403.56 409.512 1404.11 409.158Z" fill="white"/>
<path opacity="0.3" d="M1475.58 412.485C1476.12 412.132 1476.28 411.404 1475.92 410.86C1475.57 410.316 1474.84 410.161 1474.3 410.514C1473.75 410.867 1473.6 411.595 1473.95 412.139C1474.31 412.684 1475.03 412.839 1475.58 412.485Z" fill="white"/>
<path opacity="0.3" d="M1418.58 450.874C1419.12 450.521 1419.28 449.793 1418.92 449.249C1418.57 448.704 1417.84 448.549 1417.3 448.903C1416.75 449.256 1416.6 449.984 1416.95 450.528C1417.31 451.072 1418.03 451.227 1418.58 450.874Z" fill="white"/>
<path opacity="0.3" d="M1141.24 642.753C1141.79 642.4 1141.94 641.672 1141.59 641.128C1141.23 640.584 1140.51 640.429 1139.96 640.782C1139.42 641.135 1139.26 641.863 1139.62 642.407C1139.97 642.952 1140.7 643.106 1141.24 642.753Z" fill="white"/>
<path opacity="0.3" d="M1083.75 641.556C1084.29 641.203 1084.45 640.475 1084.1 639.931C1083.74 639.387 1083.01 639.232 1082.47 639.585C1081.93 639.938 1081.77 640.666 1082.12 641.21C1082.48 641.755 1083.2 641.91 1083.75 641.556Z" fill="white"/>
<path opacity="0.11" d="M1445.79 410.814C1446.33 410.461 1446.49 409.733 1446.13 409.189C1445.78 408.644 1445.05 408.489 1444.51 408.843C1443.96 409.196 1443.81 409.924 1444.16 410.468C1444.52 411.012 1445.24 411.167 1445.79 410.814Z" fill="white"/>
<path opacity="0.3" d="M1143.33 579.09C1143.87 578.737 1144.03 578.009 1143.67 577.465C1143.32 576.921 1142.59 576.766 1142.05 577.119C1141.5 577.472 1141.35 578.2 1141.7 578.744C1142.06 579.289 1142.78 579.444 1143.33 579.09Z" fill="white"/>
<path opacity="0.11" d="M1123.63 577.87C1124.18 577.516 1124.33 576.789 1123.98 576.244C1123.62 575.7 1122.9 575.545 1122.35 575.898C1121.81 576.252 1121.65 576.979 1122.01 577.524C1122.36 578.068 1123.09 578.223 1123.63 577.87Z" fill="white"/>
<path opacity="0.3" d="M1140.16 611.954C1140.7 611.601 1140.85 610.873 1140.5 610.329C1140.15 609.784 1139.42 609.629 1138.88 609.983C1138.33 610.336 1138.18 611.064 1138.53 611.608C1138.88 612.152 1139.61 612.307 1140.16 611.954Z" fill="white"/>
<path d="M1170.62 591.481C1171.03 591.216 1171.14 590.671 1170.88 590.263C1170.61 589.855 1170.07 589.738 1169.66 590.003C1169.25 590.268 1169.14 590.814 1169.4 591.222C1169.67 591.63 1170.21 591.746 1170.62 591.481Z" fill="white"/>
</g>
<ellipse cx="1040" cy="861.5" rx="625" ry="431.5" fill="url(#paint0_radial_46_2229)" fill-opacity="0.4"/>
<mask id="path-151-inside-1_46_2229" fill="white">
<path d="M-119 1535C-119 1071.08 257.081 695 721 695H1441C1904.92 695 2281 1071.08 2281 1535V1535C2281 1998.92 1904.92 2375 1441 2375H721C257.081 2375 -119 1998.92 -119 1535V1535Z"/>
</mask>
<path d="M-119 1535C-119 1071.08 257.081 695 721 695H1441C1904.92 695 2281 1071.08 2281 1535V1535C2281 1998.92 1904.92 2375 1441 2375H721C257.081 2375 -119 1998.92 -119 1535V1535Z" fill="#04000A"/>
<path d="M-119 1535C-119 1070.53 257.529 694 722 694H1440C1904.47 694 2281 1070.53 2281 1535C2281 1071.63 1904.92 696 1441 696H721C257.081 696 -119 1071.63 -119 1535ZM2281 2375H-119H2281ZM-119 2375V695V2375ZM2281 695V2375V695Z" fill="#7877C6" fill-opacity="0.4" mask="url(#path-151-inside-1_46_2229)"/>
</g>
<defs>
<radialGradient id="paint0_radial_46_2229" cx="0" cy="0" r="1" gradientUnits="userSpaceOnUse" gradientTransform="translate(1040 861.5) rotate(34.6212) scale(759.485 710.185)">
<stop stop-color="#7877C6"/>
<stop offset="0.7" stop-opacity="0"/>
</radialGradient>
<clipPath id="clip0_46_2229">
<rect width="2116" height="938" fill="white"/>
</clipPath>
</defs>
</svg>
